<?xml version="1.0" standalone="no"?>
<!DOCTYPE svg PUBLIC "-//W3C//DTD SVG 20010904//EN"
 "http://www.w3.org/TR/2001/REC-SVG-20010904/DTD/svg10.dtd">
<svg version="1.0" xmlns="http://www.w3.org/2000/svg"
 width="319.000000pt" height="283.000000pt" viewBox="0 0 319.000000 283.000000"
 preserveAspectRatio="xMidYMid meet">

<g transform="translate(0.000000,283.000000) scale(0.100000,-0.100000)"
fill="#000000" stroke="none">
<path d="M0 1415 l0 -1415 1595 0 1595 0 0 1415 0 1415 -1595 0 -1595 0 0
-1415z m1319 1298 c-40 -51 -127 -154 -165 -195 -34 -36 -62 -53 -125 -77 -44
-17 -86 -31 -93 -31 -7 0 -21 -9 -31 -20 -23 -25 -14 -25 37 1 49 25 71 22
175 -26 47 -22 73 -39 67 -45 -12 -12 -204 -80 -228 -80 -10 0 -40 11 -68 25
-27 14 -55 25 -62 25 -11 0 -116 -132 -116 -146 0 -3 12 2 28 12 15 10 51 31
81 46 46 24 62 27 105 22 28 -3 62 -9 76 -14 14 -4 53 -16 88 -25 34 -10 62
-21 62 -24 0 -3 -42 -20 -93 -38 -50 -17 -112 -39 -137 -48 -42 -16 -96 -17
-235 -2 -16 2 -28 -14 -57 -73 -20 -41 -37 -81 -37 -89 -1 -7 20 7 47 33 74
72 97 80 228 73 62 -3 120 -10 130 -15 17 -10 15 -11 -213 -132 -38 -20 -73
-30 -132 -35 -93 -8 -93 -8 -111 -101 -15 -78 -11 -109 10 -68 25 49 71 104
100 119 37 19 223 50 247 40 16 -6 16 -8 -7 -23 -14 -10 -60 -51 -103 -92 -64
-62 -94 -82 -170 -116 l-92 -40 4 -74 c4 -105 14 -127 30 -65 15 59 35 98 62
124 46 43 239 121 239 96 0 -4 -11 -20 -25 -37 -14 -16 -44 -62 -66 -101 -51
-89 -68 -107 -146 -163 -35 -25 -63 -50 -63 -56 0 -21 43 -133 57 -148 12 -13
13 -10 7 17 -10 52 14 131 54 175 40 44 153 128 172 128 8 0 10 -6 5 -17 -19
-46 -53 -153 -64 -198 -8 -35 -29 -72 -71 -124 -51 -64 -58 -77 -48 -95 16
-33 89 -128 94 -123 2 2 -3 26 -11 53 -8 27 -15 62 -15 77 0 28 34 104 67 146
35 45 85 101 92 101 9 0 2 -239 -10 -288 -5 -24 -21 -66 -34 -95 -14 -28 -25
-56 -25 -63 0 -7 25 -34 56 -61 77 -67 90 -72 61 -25 -41 64 -53 116 -39 170
25 96 74 202 93 202 5 0 9 -17 9 -38 0 -21 12 -78 26 -127 26 -90 28 -152 8
-261 -6 -29 -3 -32 64 -67 38 -20 76 -37 83 -37 7 0 -5 19 -28 43 -22 23 -46
52 -52 64 -22 43 -5 293 19 293 4 0 18 -24 30 -54 12 -30 37 -78 56 -107 39
-62 64 -139 64 -201 0 -59 14 -73 84 -87 98 -18 103 -14 39 29 -33 21 -65 51
-72 66 -21 47 -41 147 -41 208 l0 60 36 -42 c19 -23 60 -65 90 -94 62 -59 90
-105 122 -199 l23 -67 -22 -53 c-44 -113 -92 -149 -235 -174 -90 -16 -274 -21
-274 -7 0 4 19 18 43 31 23 13 81 50 129 82 90 59 110 68 213 90 l60 13 -98
18 -99 19 -39 -45 c-49 -55 -92 -82 -146 -90 -44 -6 -215 9 -268 24 -16 5 -49
14 -73 20 -23 6 -40 14 -38 19 3 4 33 16 68 25 69 20 64 18 158 52 50 18 86
24 155 24 l90 1 -82 40 -82 40 -43 -29 c-108 -73 -200 -70 -373 15 -87 42
-155 84 -155 94 0 9 223 16 325 11 27 -2 69 -12 93 -23 73 -32 82 -23 27 27
-89 80 -86 79 -159 59 -103 -28 -161 -18 -247 40 -82 56 -227 190 -217 200 3
3 35 -1 70 -9 34 -9 106 -25 158 -36 75 -17 108 -30 163 -66 38 -25 70 -44 72
-42 2 2 -20 38 -48 81 l-52 77 -83 0 c-103 0 -133 13 -198 81 -73 78 -174 234
-174 268 0 6 23 -3 52 -20 28 -17 92 -51 142 -76 72 -36 103 -58 150 -109 32
-36 60 -63 62 -62 1 2 -11 44 -29 92 l-32 89 -61 13 c-78 16 -117 36 -148 77
-47 62 -119 239 -132 325 -8 54 -10 54 72 -26 27 -26 75 -71 107 -99 42 -37
71 -74 103 -134 42 -77 45 -81 40 -44 -3 22 -6 67 -6 100 l0 60 -56 29 c-88
46 -126 90 -147 171 -21 79 -36 335 -20 335 5 0 20 -19 33 -42 13 -24 48 -80
77 -125 64 -99 77 -127 93 -218 15 -78 15 -78 39 42 l18 87 -45 40 c-91 83
-109 138 -92 288 12 103 40 238 51 238 3 0 16 -30 28 -67 12 -38 34 -97 49
-133 21 -51 27 -88 32 -172 l5 -106 41 84 41 84 -29 42 c-41 62 -68 122 -68
156 0 34 33 169 56 227 28 72 57 135 64 135 3 0 14 -48 25 -107 24 -130 25
-270 2 -330 -18 -48 -6 -57 20 -15 9 15 33 46 52 70 l35 44 -32 58 c-18 31
-32 69 -32 83 0 30 93 217 119 241 17 16 19 11 40 -94 l22 -110 -20 -45 c-31
-70 -4 -42 33 34 48 99 75 130 141 164 66 33 209 85 239 86 16 1 17 -1 5 -16z
m646 -9 c194 -65 232 -94 293 -222 19 -40 38 -75 43 -78 13 -8 10 7 -6 36 -19
33 -18 75 2 176 20 96 31 102 69 39 36 -61 84 -165 90 -194 6 -26 -26 -104
-47 -117 -16 -9 -10 -50 10 -68 10 -9 34 -39 52 -66 19 -28 37 -50 40 -50 3 0
-5 37 -18 81 -25 88 -28 125 -14 179 5 19 17 79 26 133 9 53 21 97 25 97 11 0
66 -141 92 -235 36 -126 28 -177 -43 -282 l-29 -41 35 -75 c19 -41 35 -79 35
-85 0 -6 4 -13 10 -17 6 -3 9 34 9 98 -1 91 3 112 30 183 16 43 38 105 49 137
11 32 23 58 28 58 17 1 44 -146 51 -268 6 -122 6 -123 -22 -165 -16 -24 -48
-61 -72 -83 l-43 -41 16 -84 c23 -123 24 -124 45 -26 10 49 27 102 36 117 118
189 157 247 165 243 22 -14 -5 -303 -36 -377 -18 -44 -67 -89 -132 -122 l-51
-26 -7 -91 c-4 -50 -5 -92 -3 -94 1 -2 21 31 42 72 31 58 57 91 114 142 42 37
92 84 112 105 44 45 62 48 53 10 -35 -147 -101 -300 -151 -348 -32 -31 -121
-65 -170 -65 -16 0 -26 -16 -52 -88 -17 -48 -31 -92 -31 -97 0 -6 28 20 63 57
47 51 84 78 157 116 52 27 116 62 143 77 34 19 47 23 47 13 0 -24 -136 -225
-185 -273 -60 -61 -97 -75 -193 -75 l-78 0 -53 -76 c-29 -41 -51 -77 -49 -79
1 -2 34 17 71 41 54 35 87 48 165 65 53 11 121 27 150 35 92 27 93 16 10 -65
-179 -172 -259 -205 -398 -162 l-62 20 -73 -62 c-40 -34 -72 -64 -70 -65 2 -2
40 8 85 22 78 24 88 25 241 19 87 -3 159 -10 159 -14 0 -20 -148 -99 -253
-135 -120 -40 -171 -32 -294 46 -20 13 -26 13 -45 1 -13 -8 -52 -27 -88 -43
l-65 -27 98 -1 c79 0 111 -5 170 -26 73 -26 99 -34 175 -54 23 -6 42 -15 42
-19 0 -15 -152 -51 -252 -60 -148 -14 -196 2 -272 91 l-36 41 -95 -18 c-53
-10 -94 -19 -92 -22 2 -2 37 -10 78 -19 75 -15 169 -61 223 -108 16 -15 33
-26 37 -26 5 0 29 -13 55 -30 62 -39 46 -44 -109 -37 -136 7 -211 24 -266 60
-43 29 -111 139 -111 180 0 16 14 63 32 105 25 61 48 94 110 159 43 46 85 94
94 108 9 14 20 25 25 25 21 0 1 -160 -32 -247 -13 -35 -56 -74 -108 -98 -36
-16 -55 -35 -33 -35 14 1 174 38 177 42 3 2 9 44 14 92 9 73 17 99 49 154 37
65 72 137 87 177 11 31 34 -53 42 -151 7 -102 -5 -140 -64 -199 -26 -25 -41
-45 -34 -45 19 0 135 56 148 71 9 12 9 32 0 94 -7 44 -10 96 -6 115 28 140 55
250 62 247 20 -6 79 -164 84 -222 4 -52 1 -68 -26 -120 -16 -32 -29 -61 -27
-63 5 -4 106 83 122 106 12 17 9 29 -21 100 -33 74 -35 89 -39 204 -2 67 -7
131 -11 141 -16 39 26 14 69 -42 91 -118 113 -189 85 -269 -20 -59 -3 -56 39
6 24 34 45 68 48 76 3 9 -19 47 -54 93 -43 57 -62 93 -72 133 -7 30 -23 84
-37 120 -34 92 -28 98 42 47 130 -95 165 -148 165 -252 0 -60 12 -52 40 29 30
89 28 94 -54 154 -62 44 -81 65 -121 135 -27 45 -59 95 -72 110 -45 55 -26 60
74 20 130 -52 171 -90 194 -178 5 -22 13 -47 16 -55 8 -21 22 51 22 121 l1 56
-87 34 c-76 29 -99 44 -168 109 -44 42 -93 86 -109 98 -23 18 -25 23 -12 28
21 8 211 -23 244 -40 36 -19 75 -62 100 -111 l21 -40 0 40 c0 22 -6 65 -13 95
l-12 55 -99 12 c-91 12 -105 16 -189 66 -50 30 -106 62 -125 72 -21 10 -30 20
-24 26 6 6 64 13 129 16 137 7 149 3 228 -71 27 -26 51 -45 53 -42 6 5 -64
146 -80 163 -9 8 -25 9 -57 3 -88 -18 -154 -12 -242 21 -46 17 -108 39 -138
49 l-55 18 36 15 c20 9 81 25 136 36 115 24 144 19 228 -39 25 -17 45 -28 45
-25 0 9 -46 78 -78 114 l-29 35 -62 -27 c-75 -32 -81 -33 -151 -6 -30 11 -77
27 -103 36 -26 9 -46 21 -44 27 4 13 86 54 145 71 36 11 50 11 83 0 21 -8 39
-10 39 -5 0 8 -62 34 -130 55 -54 17 -101 58 -189 164 -50 61 -91 113 -91 116
0 9 16 6 95 -21z m-168 -548 c124 -44 205 -153 187 -252 -11 -60 -73 -104
-129 -90 -33 8 -45 33 -52 110 -8 90 -38 145 -93 174 -40 21 -55 23 -130 19
-98 -5 -146 -25 -216 -89 -100 -92 -147 -216 -147 -383 1 -152 42 -257 133
-339 53 -48 107 -72 190 -85 117 -19 215 10 312 90 51 43 68 48 68 22 0 -23
-115 -133 -170 -162 -146 -76 -334 -81 -469 -10 -220 114 -292 416 -163 681
41 83 110 167 182 221 55 41 157 87 224 103 73 17 213 12 273 -10z m-167
-1472 c22 -60 21 -75 -10 -114 l-20 -25 -25 28 c-14 15 -25 39 -25 53 0 30 37
114 50 114 4 0 18 -25 30 -56z m15 -297 c19 -35 35 -71 35 -80 0 -26 -71 -197
-81 -197 -6 0 -24 30 -41 68 -44 96 -44 161 0 225 18 26 37 47 42 47 5 0 25
-29 45 -63z"/>
</g>
</svg>
